<svg width="19" height="27" viewBox="0 0 19 27" fill="none" xmlns="http://www.w3.org/2000/svg">
<path d="M17.8287 23.085H12.7808" stroke="white" stroke-width="2" stroke-linecap="round" stroke-linejoin="round"/>
<path d="M15.3047 25.6085V20.5605" stroke="white" stroke-width="2" stroke-linecap="round" stroke-linejoin="round"/>
<path d="M9.82767 12.1938C9.70147 12.1812 9.55003 12.1812 9.41121 12.1938C6.40766 12.0928 4.02251 9.63196 4.02251 6.6032C4.00989 3.51135 6.52123 1 9.61313 1C12.705 1 15.2163 3.51135 15.2163 6.6032C15.2163 9.63196 12.8186 12.0928 9.82767 12.1938Z" stroke="white" stroke-width="2" stroke-linecap="round" stroke-linejoin="round"/>
<path d="M9.61298 26.0003C7.31617 26.0003 5.03203 25.4198 3.2905 24.2587C0.236501 22.2143 0.236501 18.8827 3.2905 16.8509C6.76095 14.5289 12.4524 14.5289 15.9229 16.8509" stroke="white" stroke-width="2" stroke-linecap="round" stroke-linejoin="round"/>
</svg>
