<svg width="100" height="60" viewBox="0 0 100 60" fill="none" xmlns="http://www.w3.org/2000/svg">
<path d="M0 0H100V60H0V0Z" fill="#A4A2FF" fill-opacity="0.5"/>
<path d="M0 0H10.4167V60H0V0Z" fill="#FFFCFC" fill-opacity="0.8"/>
<path d="M46.5048 38.4928C46.0281 38.4928 45.6328 38.0907 45.6328 37.6057V34.0571C45.6328 33.5721 46.0281 33.1699 46.5048 33.1699C46.9815 33.1699 47.3767 33.5721 47.3767 34.0571V37.6057C47.3767 38.0907 46.9815 38.4928 46.5048 38.4928Z" fill="white"/>
<path d="M53.0144 43H39.9931C37.8772 43 35.9472 41.344 35.5984 39.2266L34.0521 29.7992C33.7964 28.3324 34.5056 26.4516 35.6566 25.5172L43.7135 18.9522C45.2714 17.6747 47.7245 17.6866 49.294 18.9641L57.351 25.5172C58.4903 26.4516 59.1879 28.3324 58.9554 29.7992L57.4091 39.2148C57.0603 41.3085 55.0839 43 53.0144 43ZM46.4921 19.7802C45.8759 19.7802 45.2597 19.9695 44.8063 20.3362L36.7494 26.9129C36.0983 27.4452 35.6333 28.6755 35.7728 29.5153L37.3191 38.9309C37.5284 40.1729 38.7491 41.2257 39.9931 41.2257H53.0144C54.2584 41.2257 55.4792 40.1729 55.6884 38.9191L57.2347 29.5035C57.3626 28.6755 56.8976 27.4216 56.2581 26.9011L48.2012 20.348C47.7361 19.9695 47.1083 19.7802 46.4921 19.7802Z" fill="white"/>
</svg>
