<svg width="81" height="79" viewBox="0 0 81 79" fill="none" xmlns="http://www.w3.org/2000/svg">
<g id="Group 243">
<ellipse id="Ellipse 303" cx="40.4793" cy="39.6712" rx="39.6512" ry="39.1849" fill="#5E42BB" fill-opacity="0.8"/>
<g id="Group">
<path id="Vector" d="M28.0312 34.4474V30.5289C28.0312 24.0438 30.0138 18.7734 39.9266 18.7734C49.8394 18.7734 51.822 24.0438 51.822 30.5289V34.4474" stroke="white" stroke-opacity="0.8" stroke-width="3" stroke-linecap="round" stroke-linejoin="round"/>
<path id="Vector_2" d="M49.8478 57.9582H30.0222C22.0919 57.9582 20.1094 55.999 20.1094 48.162V44.2435C20.1094 36.4065 22.0919 34.4473 30.0222 34.4473H49.8478C57.778 34.4473 59.7606 36.4065 59.7606 44.2435V48.162C59.7606 55.999 57.778 57.9582 49.8478 57.9582Z" stroke="white" stroke-opacity="0.8" stroke-width="3" stroke-linecap="round" stroke-linejoin="round"/>
<g id="Group_2">
<path id="Vector_3" d="M47.8594 46.2031H47.8764" stroke="white" stroke-opacity="0.8" stroke-width="3" stroke-linecap="round" stroke-linejoin="round"/>
<path id="Vector_4" d="M39.9297 46.2031H39.9469" stroke="white" stroke-opacity="0.8" stroke-width="3" stroke-linecap="round" stroke-linejoin="round"/>
<path id="Vector_5" d="M32 46.2031H32.0171" stroke="white" stroke-opacity="0.8" stroke-width="3" stroke-linecap="round" stroke-linejoin="round"/>
</g>
</g>
</g>
</svg>
