<svg width="30" height="30" viewBox="0 0 30 30" fill="none" xmlns="http://www.w3.org/2000/svg">
<path d="M24.4063 20.7778C24.0849 20.7778 23.7636 20.6578 23.5099 20.4007C23.0195 19.9035 23.0195 19.0807 23.5099 18.5835L26.9431 15.1035L23.5099 11.6235C23.0195 11.1264 23.0195 10.3036 23.5099 9.80645C24.0004 9.30931 24.8122 9.30931 25.3026 9.80645L29.6321 14.195C30.1226 14.6921 30.1226 15.515 29.6321 16.0121L25.3026 20.4007C25.0489 20.6578 24.7276 20.7778 24.4063 20.7778Z" fill="#1D35FB"/>
<path d="M28.6156 16.3878H11.4159C10.7225 16.3878 10.1475 15.805 10.1475 15.1021C10.1475 14.3993 10.7225 13.8164 11.4159 13.8164H28.6156C29.309 13.8164 29.8841 14.3993 29.8841 15.1021C29.8841 15.805 29.309 16.3878 28.6156 16.3878Z" fill="#1D35FB"/>
<path d="M14.7982 30C6.08839 30 0 23.8286 0 15C0 6.17143 6.08839 0 14.7982 0C15.4916 0 16.0666 0.582857 16.0666 1.28571C16.0666 1.98857 15.4916 2.57143 14.7982 2.57143C7.57667 2.57143 2.53683 7.68 2.53683 15C2.53683 22.32 7.57667 27.4286 14.7982 27.4286C15.4916 27.4286 16.0666 28.0114 16.0666 28.7143C16.0666 29.4171 15.4916 30 14.7982 30Z" fill="#1D35FB"/>
</svg>
