<svg width="55" height="55" viewBox="0 0 55 55" fill="none" xmlns="http://www.w3.org/2000/svg">
<circle cx="27.5" cy="27.5" r="27.5" fill="#A4A2FF"/>
<path d="M20.3506 25V22.5C20.3506 18.3625 21.4375 15 26.8723 15C32.3071 15 33.3941 18.3625 33.3941 22.5V25" stroke="#5E42BB" stroke-width="3" stroke-linecap="round" stroke-linejoin="round"/>
<path d="M32.3058 40H21.4362C17.0884 40 16.0015 38.75 16.0015 33.75V31.25C16.0015 26.25 17.0884 25 21.4362 25H32.3058C36.6536 25 37.7406 26.25 37.7406 31.25V33.75C37.7406 38.75 36.6536 40 32.3058 40Z" stroke="#5E42BB" stroke-width="3" stroke-linecap="round" stroke-linejoin="round"/>
<path d="M27.0524 35.417C28.5531 35.417 29.7697 34.0179 29.7697 32.292C29.7697 30.5661 28.5531 29.167 27.0524 29.167C25.5516 29.167 24.335 30.5661 24.335 32.292C24.335 34.0179 25.5516 35.417 27.0524 35.417Z" stroke="#5E42BB" stroke-width="3" stroke-linecap="round" stroke-linejoin="round"/>
</svg>
