<svg width="86" height="33" viewBox="0 0 86 33" fill="none" xmlns="http://www.w3.org/2000/svg">
<path d="M13.1489 26.795H12.2844C5.36857 26.795 1.91064 25.4207 1.91064 18.5494V11.6782C1.91064 6.18113 5.36857 3.43262 12.2844 3.43262H26.1161C33.0319 3.43262 36.4899 6.18113 36.4899 11.6782V18.5494C36.4899 24.0465 33.0319 26.795 26.1161 26.795H25.2516C24.7156 26.795 24.1969 27.0011 23.8684 27.3447L21.275 30.0932C20.1339 31.3025 18.2666 31.3025 17.1255 30.0932L14.5321 27.3447C14.2554 27.0423 13.6157 26.795 13.1489 26.795Z" stroke="#6764FF" stroke-width="3" stroke-miterlimit="10" stroke-linecap="round" stroke-linejoin="round"/>
<path d="M26.1104 15.8008H26.1257" stroke="#6764FF" stroke-width="3" stroke-linecap="round" stroke-linejoin="round"/>
<path d="M19.1929 15.8008H19.2084" stroke="#6764FF" stroke-width="3" stroke-linecap="round" stroke-linejoin="round"/>
<path d="M12.2754 15.8008H12.2909" stroke="#6764FF" stroke-width="3" stroke-linecap="round" stroke-linejoin="round"/>
<ellipse cx="35.3374" cy="7.08108" rx="5.7632" ry="6.08108" fill="white"/>
<path d="M39.1794 7.0814C39.1794 9.32039 37.4592 11.1355 35.3373 11.1355C33.2153 11.1355 31.4951 9.32039 31.4951 7.0814C31.4951 4.84241 33.2153 3.02734 35.3373 3.02734C37.4592 3.02734 39.1794 4.84241 39.1794 7.0814Z" fill="#E73147"/>
<path d="M69.3422 26.8378C65.7533 26.8378 62.1644 26.3246 58.7603 25.2983C57.4665 24.896 56.4807 24.0777 56.0494 23.0098C55.6027 21.9418 55.7567 20.7629 56.4653 19.7088L58.2366 17.0597C58.6063 16.5049 58.9452 15.3953 58.9452 14.7434V10.7351C58.9452 5.57557 63.6123 1.37305 69.3422 1.37305C75.0721 1.37305 79.7392 5.57557 79.7392 10.7351V14.7434C79.7392 15.3814 80.0781 16.5049 80.4477 17.0735L82.2037 19.7088C82.866 20.7074 82.9892 21.914 82.5425 23.0098C82.0959 24.1055 81.1255 24.9376 79.9086 25.2983C76.52 26.3246 72.9311 26.8378 69.3422 26.8378ZM69.3422 3.4535C64.8907 3.4535 61.2556 6.71288 61.2556 10.7351V14.7434C61.2556 15.7559 60.7935 17.2538 60.2236 18.1276L58.4523 20.7767C58.1134 21.2899 58.021 21.8308 58.2212 22.2885C58.406 22.7601 58.8681 23.1207 59.4997 23.3149C65.9381 25.2566 72.7617 25.2566 79.2001 23.3149C79.7546 23.1485 80.1859 22.774 80.3861 22.2747C80.5864 21.7754 80.5402 21.2344 80.2321 20.7767L78.4608 18.1276C77.8754 17.2261 77.4288 15.742 77.4288 14.7295V10.7351C77.4288 6.71288 73.8091 3.4535 69.3422 3.4535Z" fill="#6764FF"/>
<path d="M72.2064 3.82804C72.0986 3.82804 71.9908 3.81417 71.883 3.78643C71.4363 3.67547 71.005 3.59225 70.5891 3.53677C69.2799 3.38421 68.0168 3.46743 66.8308 3.78643C66.3995 3.91126 65.9375 3.78643 65.6448 3.49516C65.3522 3.2039 65.2597 2.78781 65.4292 2.41333C66.0607 0.95701 67.6009 0 69.3569 0C71.1128 0 72.6531 0.94314 73.2846 2.41333C73.4387 2.78781 73.3616 3.2039 73.069 3.49516C72.8379 3.71708 72.5145 3.82804 72.2064 3.82804Z" fill="#6764FF"/>
<path d="M69.3415 30C67.8166 30 66.3379 29.4452 65.2598 28.4743C64.1815 27.5034 63.5654 26.1719 63.5654 24.7988H65.8759C65.8759 25.6171 66.2455 26.4216 66.8924 27.0041C67.5393 27.5866 68.4327 27.9195 69.3415 27.9195C71.2515 27.9195 72.8072 26.5187 72.8072 24.7988H75.1176C75.1176 27.6699 72.5299 30 69.3415 30Z" fill="#6764FF"/>
</svg>
