<svg width="26" height="29" viewBox="0 0 26 29" fill="none" xmlns="http://www.w3.org/2000/svg">
<g id="Frame">
<g id="Group 34468">
<path id="Vector" d="M6.35059 12V9.5C6.35059 5.3625 7.43754 2 12.8723 2C18.3071 2 19.3941 5.3625 19.3941 9.5V12" stroke="#5E42BB" stroke-width="3" stroke-linecap="round" stroke-linejoin="round"/>
<path id="Vector_2" d="M18.3058 27H7.43625C3.08842 27 2.00146 25.75 2.00146 20.75V18.25C2.00146 13.25 3.08842 12 7.43625 12H18.3058C22.6536 12 23.7406 13.25 23.7406 18.25V20.75C23.7406 25.75 22.6536 27 18.3058 27Z" stroke="#5E42BB" stroke-width="3" stroke-linecap="round" stroke-linejoin="round"/>
<path id="Vector_3" d="M13.0524 22.417C14.5531 22.417 15.7697 21.0179 15.7697 19.292C15.7697 17.5661 14.5531 16.167 13.0524 16.167C11.5516 16.167 10.335 17.5661 10.335 19.292C10.335 21.0179 11.5516 22.417 13.0524 22.417Z" stroke="#5E42BB" stroke-width="3" stroke-linecap="round" stroke-linejoin="round"/>
</g>
</g>
</svg>
