<svg width="25" height="25" viewBox="0 0 25 25" fill="none" xmlns="http://www.w3.org/2000/svg">
<path d="M17.7463 0H7.26612C2.71385 0 0 2.7125 0 7.2625V17.725C0 22.2875 2.71385 25 7.26612 25H17.7338C22.2861 25 25 22.2875 25 17.7375V7.2625C25.0125 2.7125 22.2986 0 17.7463 0ZM17.5087 13.4375H13.4442V17.5C13.4442 18.0125 13.019 18.4375 12.5062 18.4375C11.9935 18.4375 11.5683 18.0125 11.5683 17.5V13.4375H7.50374C6.99098 13.4375 6.56577 13.0125 6.56577 12.5C6.56577 11.9875 6.99098 11.5625 7.50374 11.5625H11.5683V7.5C11.5683 6.9875 11.9935 6.5625 12.5062 6.5625C13.019 6.5625 13.4442 6.9875 13.4442 7.5V11.5625H17.5087C18.0215 11.5625 18.4467 11.9875 18.4467 12.5C18.4467 13.0125 18.0215 13.4375 17.5087 13.4375Z" fill="white"/>
</svg>
